<svg width="22" height="22" viewBox="0 0 22 22" fill="none" xmlns="http://www.w3.org/2000/svg">
<path d="M20.9244 4.53444L17.4656 1.07556C16.7786 0.387726 15.8466 0.00085581 14.8744 0H7.12556C6.15342 0.00085581 5.22142 0.387726 4.53444 1.07556L1.07556 4.53444C0.387726 5.22142 0.00085581 6.15342 0 7.12556V18.3333C0 19.3058 0.386309 20.2384 1.07394 20.9261C1.76158 21.6137 2.69421 22 3.66667 22H18.3333C19.3058 22 20.2384 21.6137 20.9261 20.9261C21.6137 20.2384 22 19.3058 22 18.3333V7.12556C21.9991 6.15342 21.6123 5.22142 20.9244 4.53444ZM11 15.8889C9.70339 15.8889 8.45988 15.3738 7.54303 14.457C6.62619 13.5401 6.11111 12.2966 6.11111 11C6.11111 10.6758 6.23988 10.365 6.46909 10.1358C6.6983 9.90655 7.00918 9.77778 7.33333 9.77778C7.65749 9.77778 7.96836 9.90655 8.19757 10.1358C8.42679 10.365 8.55556 10.6758 8.55556 11C8.55556 11.6483 8.8131 12.2701 9.27152 12.7285C9.72994 13.1869 10.3517 13.4444 11 13.4444C11.6483 13.4444 12.2701 13.1869 12.7285 12.7285C13.1869 12.2701 13.4444 11.6483 13.4444 11C13.4444 10.6758 13.5732 10.365 13.8024 10.1358C14.0316 9.90655 14.3425 9.77778 14.6667 9.77778C14.9908 9.77778 15.3017 9.90655 15.5309 10.1358C15.7601 10.365 15.8889 10.6758 15.8889 11C15.8889 12.2966 15.3738 13.5401 14.457 14.457C13.5401 15.3738 12.2966 15.8889 11 15.8889ZM4.16778 4.88889L6.25778 2.79889C6.492 2.57555 6.80195 2.44895 7.12556 2.44444H14.8744C15.198 2.44895 15.508 2.57555 15.7422 2.79889L17.8322 4.88889H4.16778Z" fill="black"/>
</svg>
