<svg width="25" height="24" viewBox="0 0 25 24" fill="none" xmlns="http://www.w3.org/2000/svg">
<path d="M24.6318 5.16465C24.4087 4.77816 24.0893 4.45608 23.7046 4.22982C23.32 4.00357 22.8833 3.88086 22.4371 3.87368H5.91266L5.16389 0.956077C5.08824 0.674436 4.91946 0.426706 4.68504 0.253235C4.45062 0.0797644 4.16437 -0.00922627 3.87292 0.00075713H1.29097C0.948586 0.00075713 0.620222 0.13677 0.378117 0.378874C0.136013 0.620979 0 0.949343 0 1.29173C0 1.63412 0.136013 1.96248 0.378117 2.20459C0.620222 2.44669 0.948586 2.5827 1.29097 2.5827H2.89178L6.45487 15.8281C6.53052 16.1097 6.6993 16.3575 6.93372 16.5309C7.16814 16.7044 7.45439 16.7934 7.74584 16.7834H19.3646C19.603 16.7827 19.8365 16.716 20.0393 16.5906C20.2421 16.4653 20.4063 16.2863 20.5136 16.0734L24.748 7.60459C24.9315 7.2199 25.0169 6.79576 24.9967 6.37001C24.9764 5.94426 24.851 5.53016 24.6318 5.16465Z" fill="black"/>
<path d="M7.10052 23.2383C8.17 23.2383 9.03698 22.3713 9.03698 21.3018C9.03698 20.2323 8.17 19.3654 7.10052 19.3654C6.03105 19.3654 5.16406 20.2323 5.16406 21.3018C5.16406 22.3713 6.03105 23.2383 7.10052 23.2383Z" fill="black"/>
<path d="M20.0097 23.2383C21.0792 23.2383 21.9462 22.3713 21.9462 21.3018C21.9462 20.2323 21.0792 19.3654 20.0097 19.3654C18.9402 19.3654 18.0732 20.2323 18.0732 21.3018C18.0732 22.3713 18.9402 23.2383 20.0097 23.2383Z" fill="black"/>
</svg>
