<svg width="29" height="21" viewBox="0 0 29 21" fill="none" xmlns="http://www.w3.org/2000/svg">
<path d="M8.66604 10.1104C11.5475 10.1104 13.7212 7.93665 13.7212 5.05519C13.7212 2.17373 11.5475 0 8.66604 0C5.78458 0 3.61085 2.17373 3.61085 5.05519C3.61085 7.93665 5.78458 10.1104 8.66604 10.1104ZM10.1104 11.4796H7.2217C3.23966 11.4796 0 14.7193 0 18.7013V20.1457H17.3321V18.7013C17.3321 14.7193 14.0924 11.4796 10.1104 11.4796ZM26.4228 4.67966L20.2121 10.8788L18.346 9.01268L16.3037 11.055L20.2121 14.9605L28.4622 6.72485L26.4228 4.67966Z" fill="black"/>
</svg>
