<svg width="86" height="68" viewBox="0 0 86 68" fill="none" xmlns="http://www.w3.org/2000/svg">
<path d="M73.9673 31.3552V33.8325H59.1035V31.3552H73.9673ZM74.6932 7.43195L84.3274 17.0662L82.5759 18.8201L81.263 18.3816L78.1948 21.446L85.2019 28.4531L83.4504 30.2045L76.4446 23.1975L73.4669 26.1752L73.8174 27.5773L72.0647 29.3288L62.4305 19.6946L64.1832 17.9431L65.5829 18.2924L73.379 10.4976L72.9417 9.18463L74.6932 7.43195Z" fill="#F27900"/>
<path d="M1.82215 60.1953C1.71024 60.1953 1.60951 60.1617 1.51998 60.0945C1.45283 60.005 1.41925 59.9043 1.41925 59.7924V37.0959C1.41925 36.9839 1.45283 36.8944 1.51998 36.8273C1.60951 36.7377 1.71024 36.693 1.82215 36.693H6.58976C6.70167 36.693 6.79121 36.7377 6.85836 36.8273C6.94789 36.8944 6.99265 36.9839 6.99265 37.0959V55.2598C6.99265 55.3717 7.04861 55.4276 7.16053 55.4276H14.0098C14.1217 55.4276 14.2112 55.4724 14.2784 55.5619C14.3679 55.6291 14.4127 55.7186 14.4127 55.8305V59.7924C14.4127 59.9043 14.3679 60.005 14.2784 60.0945C14.2112 60.1617 14.1217 60.1953 14.0098 60.1953H1.82215ZM25.1678 60.1953C24.8992 60.1953 24.7538 60.0721 24.7314 59.8259L24.2949 56.9049C24.2949 56.793 24.2277 56.7371 24.0935 56.7371H20.4674C20.3331 56.7371 20.2659 56.793 20.2659 56.9049L19.863 59.8259C19.8407 60.0721 19.6952 60.1953 19.4266 60.1953H14.659C14.368 60.1953 14.2561 60.0498 14.3232 59.7588L19.1915 37.0623C19.2363 36.8161 19.3818 36.693 19.628 36.693H25.1007C25.3469 36.693 25.4924 36.8161 25.5372 37.0623L30.3719 59.7588L30.4055 59.8931C30.4055 60.0945 30.2824 60.1953 30.0362 60.1953H25.1678ZM21.0046 52.2716C21.0046 52.3835 21.0493 52.4395 21.1389 52.4395H23.3884C23.4779 52.4395 23.5227 52.3835 23.5227 52.2716L22.314 44.6166C22.2916 44.5271 22.258 44.4823 22.2133 44.4823C22.1685 44.4823 22.1349 44.5271 22.1125 44.6166L21.0046 52.2716ZM40.3709 37.0959C40.3709 36.9839 40.4045 36.8944 40.4716 36.8273C40.5611 36.7377 40.6619 36.693 40.7738 36.693H45.4742C45.5861 36.693 45.6757 36.7377 45.7428 36.8273C45.8324 36.8944 45.8771 36.9839 45.8771 37.0959V59.7924C45.8771 59.9043 45.8324 60.005 45.7428 60.0945C45.6757 60.1617 45.5861 60.1953 45.4742 60.1953H40.1359C39.8896 60.1953 39.733 60.0833 39.6658 59.8595L36.3419 48.1755C36.3195 48.1084 36.2748 48.0748 36.2076 48.0748C36.1629 48.0524 36.1405 48.086 36.1405 48.1755L36.2076 59.7924C36.2076 59.9043 36.1629 60.005 36.0733 60.0945C36.0062 60.1617 35.9166 60.1953 35.8047 60.1953H31.1043C30.9923 60.1953 30.8916 60.1617 30.8021 60.0945C30.7349 60.005 30.7014 59.9043 30.7014 59.7924V37.0959C30.7014 36.9839 30.7349 36.8944 30.8021 36.8273C30.8916 36.7377 30.9923 36.693 31.1043 36.693H36.3755C36.6217 36.693 36.7784 36.8049 36.8455 37.0287L40.203 48.7799C40.2254 48.847 40.259 48.8806 40.3037 48.8806C40.3709 48.8806 40.4045 48.8358 40.4045 48.7463L40.3709 37.0959ZM53.6484 60.4638C51.522 60.4638 49.8208 59.8371 48.545 58.5837C47.2692 57.3302 46.6313 55.6627 46.6313 53.581V43.2736C46.6313 41.1696 47.2692 39.502 48.545 38.271C49.8208 37.0399 51.522 36.4244 53.6484 36.4244C55.7748 36.4244 57.4759 37.0399 58.7517 38.271C60.0499 39.502 60.699 41.1696 60.699 43.2736V43.5758C60.699 43.6877 60.6543 43.7884 60.5648 43.878C60.4976 43.9451 60.4081 43.9787 60.2962 43.9787L55.5285 44.1801C55.2599 44.1801 55.1256 44.0458 55.1256 43.7772V42.8707C55.1256 42.3559 54.9914 41.953 54.7228 41.662C54.4542 41.3487 54.096 41.192 53.6484 41.192C53.2231 41.192 52.8761 41.3487 52.6075 41.662C52.3389 41.953 52.2047 42.3559 52.2047 42.8707V54.0511C52.2047 54.5435 52.3389 54.9464 52.6075 55.2598C52.8761 55.5508 53.2231 55.6962 53.6484 55.6962C54.096 55.6962 54.4542 55.5508 54.7228 55.2598C54.9914 54.9464 55.1256 54.5435 55.1256 54.0511V53.0774C55.1256 52.9655 55.1592 52.876 55.2264 52.8088C55.3159 52.7193 55.4166 52.6745 55.5285 52.6745L60.2962 52.876C60.4081 52.876 60.4976 52.9207 60.5648 53.0103C60.6543 53.0774 60.699 53.1669 60.699 53.2789V53.581C60.699 55.6627 60.0499 57.3302 58.7517 58.5837C57.4759 59.8371 55.7748 60.4638 53.6484 60.4638ZM74.2205 41.0577C74.2205 41.1696 74.1757 41.2703 74.0862 41.3598C74.019 41.427 73.9295 41.4606 73.8176 41.4606H67.0691C66.9571 41.4606 66.9012 41.5165 66.9012 41.6284V45.8589C66.9012 45.9708 66.9571 46.0267 67.0691 46.0267H70.7623C70.8742 46.0267 70.9637 46.0715 71.0309 46.161C71.1204 46.2282 71.1652 46.3177 71.1652 46.4296V50.425C71.1652 50.5369 71.1204 50.6377 71.0309 50.7272C70.9637 50.7943 70.8742 50.8279 70.7623 50.8279H67.0691C66.9571 50.8279 66.9012 50.8839 66.9012 50.9958V55.2598C66.9012 55.3717 66.9571 55.4276 67.0691 55.4276H73.8176C73.9295 55.4276 74.019 55.4724 74.0862 55.5619C74.1757 55.6291 74.2205 55.7186 74.2205 55.8305V59.7924C74.2205 59.9043 74.1757 60.005 74.0862 60.0945C74.019 60.1617 73.9295 60.1953 73.8176 60.1953H61.7307C61.6188 60.1953 61.518 60.1617 61.4285 60.0945C61.3614 60.005 61.3278 59.9043 61.3278 59.7924V37.0959C61.3278 36.9839 61.3614 36.8944 61.4285 36.8273C61.518 36.7377 61.6188 36.693 61.7307 36.693H73.8176C73.9295 36.693 74.019 36.7377 74.0862 36.8273C74.1757 36.8944 74.2205 36.9839 74.2205 37.0959V41.0577Z" fill="black"/>
<path d="M3.15602 9.59844C3.33509 9.53129 3.50296 9.49771 3.65964 9.49771H8.56155C8.67346 9.49771 8.763 9.54248 8.83014 9.63201C8.91968 9.69916 8.96444 9.7887 8.96444 9.90061V32.5971C8.96444 32.709 8.91968 32.8097 8.83014 32.8993C8.763 32.9664 8.67346 33 8.56155 33H3.79394C3.68202 33 3.5813 32.9664 3.49177 32.8993C3.42462 32.8097 3.39104 32.709 3.39104 32.5971V14.9032C3.39104 14.7913 3.33509 14.7354 3.22317 14.7354L0.738643 14.8697C0.470046 14.8697 0.335747 14.7466 0.335747 14.5003L0.268598 10.9414C0.268598 10.7176 0.380513 10.5721 0.604344 10.505L3.15602 9.59844ZM16.1444 28.0309C16.0997 28.0757 16.0885 28.1205 16.1109 28.1652C16.1333 28.21 16.178 28.2324 16.2452 28.2324H22.9601C23.072 28.2324 23.1616 28.2772 23.2287 28.3667C23.3182 28.4338 23.363 28.5234 23.363 28.6353V32.5971C23.363 32.709 23.3182 32.8097 23.2287 32.8993C23.1616 32.9664 23.072 33 22.9601 33H9.79883C9.68691 33 9.58619 32.9664 9.49665 32.8993C9.4295 32.8097 9.39593 32.709 9.39593 32.5971V28.501C9.39593 28.3443 9.45189 28.1764 9.5638 27.9974C9.49665 28.0869 10.0786 27.4042 11.3097 25.9493C12.1602 24.9421 12.9884 23.946 13.7942 22.9612C14.6 21.9539 15.2603 21.0698 15.7751 20.3088C16.8943 18.5853 17.4539 17.108 17.4539 15.8769C17.4539 15.2502 17.3307 14.7801 17.0845 14.4668C16.8607 14.1534 16.5585 13.9967 16.178 13.9967C15.7975 13.9967 15.4841 14.1534 15.2379 14.4668C15.0141 14.7801 14.9134 15.183 14.9358 15.6755V17.1192C14.9358 17.2311 14.891 17.3318 14.8015 17.4213C14.7343 17.4885 14.6448 17.5221 14.5329 17.5221H9.6981C9.58619 17.5221 9.48546 17.4885 9.39593 17.4213C9.32878 17.3318 9.29521 17.2311 9.29521 17.1192V15.4404C9.40712 13.5826 10.1234 12.083 11.444 10.9414C12.7646 9.79989 14.4321 9.22912 16.4466 9.22912C17.7448 9.22912 18.8976 9.50891 19.9048 10.0685C20.912 10.6281 21.6955 11.4115 22.255 12.4187C22.8146 13.426 23.0944 14.5899 23.0944 15.9105C23.0944 17.0968 22.9041 18.2048 22.5236 19.2344C22.1655 20.2416 21.5724 21.3272 20.7442 22.4911C20.0727 23.4536 18.9871 24.7742 17.4874 26.4529L16.1444 28.0309ZM36.5301 23.3976C36.5972 24.0691 36.6308 24.7518 36.6308 25.4457C36.6308 25.9605 36.6084 26.688 36.5636 27.628C36.4741 29.3292 35.8362 30.6945 34.6499 31.7242C33.4636 32.7538 31.9079 33.2686 29.983 33.2686C28.6624 33.2686 27.4873 33.0336 26.4576 32.5635C25.428 32.0711 24.6222 31.3884 24.0403 30.5155C23.4583 29.6425 23.1561 28.6465 23.1337 27.5273C23.089 26.7663 23.0666 26.1731 23.0666 25.7479C23.0666 25.4793 23.2009 25.345 23.4695 25.345H28.2371C28.5057 25.345 28.64 25.4793 28.64 25.7479C28.64 26.0612 28.6624 26.4641 28.7071 26.9566C28.7519 27.4266 28.8862 27.7959 29.11 28.0645C29.3339 28.3331 29.6249 28.4674 29.983 28.4674C30.3411 28.4674 30.6321 28.3443 30.8559 28.0981C31.1021 27.8295 31.2476 27.4714 31.2924 27.0237C31.3148 26.5313 31.326 25.8038 31.326 24.8413C31.326 23.8565 31.3036 23.1402 31.2588 22.6926C31.2364 22.2673 31.1021 21.9315 30.8559 21.6853C30.6321 21.4167 30.3411 21.2824 29.983 21.2824C29.6249 21.2824 29.2443 21.4615 28.8414 21.8196C28.7519 21.9092 28.6624 21.9539 28.5728 21.9539C28.5057 21.9539 28.405 21.9092 28.2707 21.8196L25.8197 19.268C25.7302 19.1337 25.6854 19.0329 25.6854 18.9658C25.6854 18.8762 25.7302 18.7867 25.8197 18.6972L29.7815 14.4332C29.8711 14.2989 29.8487 14.2317 29.7144 14.2317H23.9395C23.8276 14.2317 23.7269 14.1982 23.6374 14.131C23.5702 14.0415 23.5366 13.9408 23.5366 13.8288V9.90061C23.5366 9.7887 23.5702 9.69916 23.6374 9.63201C23.7269 9.54248 23.8276 9.49771 23.9395 9.49771H36.1943C36.3062 9.49771 36.3958 9.54248 36.4629 9.63201C36.5524 9.69916 36.5972 9.7887 36.5972 9.90061V13.9631C36.5972 14.1422 36.5301 14.2989 36.3958 14.4332L32.7697 18.63C32.6802 18.7643 32.7025 18.8315 32.8368 18.8315C33.8441 18.8986 34.6946 19.3687 35.3885 20.2416C36.0824 21.1146 36.4629 22.1666 36.5301 23.3976Z" fill="black"/>
<rect x="38.4521" y="30.6196" width="36.3163" height="3.56042" fill="#F27900"/>
</svg>
