<svg width="86" height="68" viewBox="0 0 86 68" fill="none" xmlns="http://www.w3.org/2000/svg">
<path d="M74.7655 31.3552V33.8325H59.9017V31.3552H74.7655ZM75.4913 7.43195L85.1255 17.0662L83.3741 18.8201L82.0611 18.3816L78.993 21.446L86 28.4531L84.2486 30.2045L77.2428 23.1975L74.2651 26.1752L74.6156 27.5773L72.8629 29.3288L63.2287 19.6946L64.9814 17.9431L66.381 18.2924L74.1771 10.4976L73.7399 9.18463L75.4913 7.43195Z" fill="#F27900"/>
<path d="M2.62037 60.1953C2.50845 60.1953 2.40773 60.1617 2.3182 60.0945C2.25105 60.005 2.21747 59.9043 2.21747 59.7924V37.0959C2.21747 36.9839 2.25105 36.8944 2.3182 36.8273C2.40773 36.7377 2.50845 36.693 2.62037 36.693H7.38798C7.49989 36.693 7.58942 36.7377 7.65657 36.8273C7.74611 36.8944 7.79087 36.9839 7.79087 37.0959V55.2598C7.79087 55.3717 7.84683 55.4276 7.95875 55.4276H14.808C14.9199 55.4276 15.0094 55.4724 15.0766 55.5619C15.1661 55.6291 15.2109 55.7186 15.2109 55.8305V59.7924C15.2109 59.9043 15.1661 60.005 15.0766 60.0945C15.0094 60.1617 14.9199 60.1953 14.808 60.1953H2.62037ZM25.9661 60.1953C25.6975 60.1953 25.552 60.0721 25.5296 59.8259L25.0931 56.9049C25.0931 56.793 25.026 56.7371 24.8917 56.7371H21.2656C21.1313 56.7371 21.0642 56.793 21.0642 56.9049L20.6613 59.8259C20.6389 60.0721 20.4934 60.1953 20.2248 60.1953H15.4572C15.1662 60.1953 15.0543 60.0498 15.1214 59.7588L19.9898 37.0623C20.0345 36.8161 20.18 36.693 20.4262 36.693H25.8989C26.1451 36.693 26.2906 36.8161 26.3354 37.0623L31.1701 59.7588L31.2037 59.8931C31.2037 60.0945 31.0806 60.1953 30.8344 60.1953H25.9661ZM21.8028 52.2716C21.8028 52.3835 21.8476 52.4395 21.9371 52.4395H24.1866C24.2761 52.4395 24.3209 52.3835 24.3209 52.2716L23.1122 44.6166C23.0898 44.5271 23.0563 44.4823 23.0115 44.4823C22.9667 44.4823 22.9331 44.5271 22.9108 44.6166L21.8028 52.2716ZM41.1691 37.0959C41.1691 36.9839 41.2027 36.8944 41.2698 36.8273C41.3594 36.7377 41.4601 36.693 41.572 36.693H46.2725C46.3844 36.693 46.4739 36.7377 46.541 36.8273C46.6306 36.8944 46.6753 36.9839 46.6753 37.0959V59.7924C46.6753 59.9043 46.6306 60.005 46.541 60.0945C46.4739 60.1617 46.3844 60.1953 46.2725 60.1953H40.9341C40.6879 60.1953 40.5312 60.0833 40.464 59.8595L37.1401 48.1755C37.1178 48.1084 37.073 48.0748 37.0058 48.0748C36.9611 48.0524 36.9387 48.086 36.9387 48.1755L37.0058 59.7924C37.0058 59.9043 36.9611 60.005 36.8715 60.0945C36.8044 60.1617 36.7149 60.1953 36.6029 60.1953H31.9025C31.7906 60.1953 31.6898 60.1617 31.6003 60.0945C31.5332 60.005 31.4996 59.9043 31.4996 59.7924V37.0959C31.4996 36.9839 31.5332 36.8944 31.6003 36.8273C31.6898 36.7377 31.7906 36.693 31.9025 36.693H37.1737C37.4199 36.693 37.5766 36.8049 37.6438 37.0287L41.0012 48.7799C41.0236 48.847 41.0572 48.8806 41.1019 48.8806C41.1691 48.8806 41.2027 48.8358 41.2027 48.7463L41.1691 37.0959ZM54.4466 60.4638C52.3202 60.4638 50.6191 59.8371 49.3432 58.5837C48.0674 57.3302 47.4295 55.6627 47.4295 53.581V43.2736C47.4295 41.1696 48.0674 39.502 49.3432 38.271C50.6191 37.0399 52.3202 36.4244 54.4466 36.4244C56.573 36.4244 58.2741 37.0399 59.5499 38.271C60.8482 39.502 61.4973 41.1696 61.4973 43.2736V43.5758C61.4973 43.6877 61.4525 43.7884 61.363 43.878C61.2958 43.9451 61.2063 43.9787 61.0944 43.9787L56.3268 44.1801C56.0582 44.1801 55.9239 44.0458 55.9239 43.7772V42.8707C55.9239 42.3559 55.7896 41.953 55.521 41.662C55.2524 41.3487 54.8942 41.192 54.4466 41.192C54.0213 41.192 53.6744 41.3487 53.4058 41.662C53.1372 41.953 53.0029 42.3559 53.0029 42.8707V54.0511C53.0029 54.5435 53.1372 54.9464 53.4058 55.2598C53.6744 55.5508 54.0213 55.6962 54.4466 55.6962C54.8942 55.6962 55.2524 55.5508 55.521 55.2598C55.7896 54.9464 55.9239 54.5435 55.9239 54.0511V53.0774C55.9239 52.9655 55.9574 52.876 56.0246 52.8088C56.1141 52.7193 56.2148 52.6745 56.3268 52.6745L61.0944 52.876C61.2063 52.876 61.2958 52.9207 61.363 53.0103C61.4525 53.0774 61.4973 53.1669 61.4973 53.2789V53.581C61.4973 55.6627 60.8482 57.3302 59.5499 58.5837C58.2741 59.8371 56.573 60.4638 54.4466 60.4638ZM75.0187 41.0577C75.0187 41.1696 74.9739 41.2703 74.8844 41.3598C74.8172 41.427 74.7277 41.4606 74.6158 41.4606H67.8673C67.7554 41.4606 67.6994 41.5165 67.6994 41.6284V45.8589C67.6994 45.9708 67.7554 46.0267 67.8673 46.0267H71.5605C71.6724 46.0267 71.7619 46.0715 71.8291 46.161C71.9186 46.2282 71.9634 46.3177 71.9634 46.4296V50.425C71.9634 50.5369 71.9186 50.6377 71.8291 50.7272C71.7619 50.7943 71.6724 50.8279 71.5605 50.8279H67.8673C67.7554 50.8279 67.6994 50.8839 67.6994 50.9958V55.2598C67.6994 55.3717 67.7554 55.4276 67.8673 55.4276H74.6158C74.7277 55.4276 74.8172 55.4724 74.8844 55.5619C74.9739 55.6291 75.0187 55.7186 75.0187 55.8305V59.7924C75.0187 59.9043 74.9739 60.005 74.8844 60.0945C74.8172 60.1617 74.7277 60.1953 74.6158 60.1953H62.5289C62.417 60.1953 62.3163 60.1617 62.2267 60.0945C62.1596 60.005 62.126 59.9043 62.126 59.7924V37.0959C62.126 36.9839 62.1596 36.8944 62.2267 36.8273C62.3163 36.7377 62.417 36.693 62.5289 36.693H74.6158C74.7277 36.693 74.8172 36.7377 74.8844 36.8273C74.9739 36.8944 75.0187 36.9839 75.0187 37.0959V41.0577Z" fill="black"/>
<path d="M3.95461 9.59844C4.13367 9.53129 4.30154 9.49771 4.45823 9.49771H9.36013C9.47205 9.49771 9.56158 9.54248 9.62873 9.63201C9.71826 9.69916 9.76303 9.7887 9.76303 9.90061V32.5971C9.76303 32.709 9.71826 32.8097 9.62873 32.8993C9.56158 32.9664 9.47205 33 9.36013 33H4.59252C4.48061 33 4.37988 32.9664 4.29035 32.8993C4.2232 32.8097 4.18963 32.709 4.18963 32.5971V14.9032C4.18963 14.7913 4.13367 14.7354 4.02175 14.7354L1.53723 14.8697C1.26863 14.8697 1.13433 14.7466 1.13433 14.5003L1.06718 10.9414C1.06718 10.7176 1.1791 10.5721 1.40293 10.505L3.95461 9.59844ZM16.943 28.0309C16.8983 28.0757 16.8871 28.1205 16.9095 28.1652C16.9318 28.21 16.9766 28.2324 17.0438 28.2324H23.7587C23.8706 28.2324 23.9601 28.2772 24.0273 28.3667C24.1168 28.4338 24.1616 28.5234 24.1616 28.6353V32.5971C24.1616 32.709 24.1168 32.8097 24.0273 32.8993C23.9601 32.9664 23.8706 33 23.7587 33H10.5974C10.4855 33 10.3848 32.9664 10.2952 32.8993C10.2281 32.8097 10.1945 32.709 10.1945 32.5971V28.501C10.1945 28.3443 10.2505 28.1764 10.3624 27.9974C10.2952 28.0869 10.8772 27.4042 12.1083 25.9493C12.9588 24.9421 13.787 23.946 14.5928 22.9612C15.3986 21.9539 16.0589 21.0698 16.5737 20.3088C17.6929 18.5853 18.2524 17.108 18.2524 15.8769C18.2524 15.2502 18.1293 14.7801 17.8831 14.4668C17.6593 14.1534 17.3571 13.9967 16.9766 13.9967C16.5961 13.9967 16.2827 14.1534 16.0365 14.4668C15.8127 14.7801 15.712 15.183 15.7343 15.6755V17.1192C15.7343 17.2311 15.6896 17.3318 15.6 17.4213C15.5329 17.4885 15.4434 17.5221 15.3314 17.5221H10.4967C10.3848 17.5221 10.284 17.4885 10.1945 17.4213C10.1274 17.3318 10.0938 17.2311 10.0938 17.1192V15.4404C10.2057 13.5826 10.922 12.083 12.2426 10.9414C13.5632 9.79989 15.2307 9.22912 17.2452 9.22912C18.5434 9.22912 19.6962 9.50891 20.7034 10.0685C21.7106 10.6281 22.494 11.4115 23.0536 12.4187C23.6132 13.426 23.893 14.5899 23.893 15.9105C23.893 17.0968 23.7027 18.2048 23.3222 19.2344C22.9641 20.2416 22.3709 21.3272 21.5428 22.4911C20.8713 23.4536 19.7857 24.7742 18.286 26.4529L16.943 28.0309ZM37.3286 23.3976C37.3958 24.0691 37.4294 24.7518 37.4294 25.4457C37.4294 25.9605 37.407 26.688 37.3622 27.628C37.2727 29.3292 36.6348 30.6945 35.4485 31.7242C34.2621 32.7538 32.7065 33.2686 30.7816 33.2686C29.461 33.2686 28.2859 33.0336 27.2562 32.5635C26.2266 32.0711 25.4208 31.3884 24.8389 30.5155C24.2569 29.6425 23.9547 28.6465 23.9323 27.5273C23.8876 26.7663 23.8652 26.1731 23.8652 25.7479C23.8652 25.4793 23.9995 25.345 24.2681 25.345H29.0357C29.3043 25.345 29.4386 25.4793 29.4386 25.7479C29.4386 26.0612 29.461 26.4641 29.5057 26.9566C29.5505 27.4266 29.6848 27.7959 29.9086 28.0645C30.1325 28.3331 30.4234 28.4674 30.7816 28.4674C31.1397 28.4674 31.4307 28.3443 31.6545 28.0981C31.9007 27.8295 32.0462 27.4714 32.091 27.0237C32.1134 26.5313 32.1246 25.8038 32.1246 24.8413C32.1246 23.8565 32.1022 23.1402 32.0574 22.6926C32.035 22.2673 31.9007 21.9315 31.6545 21.6853C31.4307 21.4167 31.1397 21.2824 30.7816 21.2824C30.4234 21.2824 30.0429 21.4615 29.64 21.8196C29.5505 21.9092 29.461 21.9539 29.3714 21.9539C29.3043 21.9539 29.2036 21.9092 29.0693 21.8196L26.6183 19.268C26.5288 19.1337 26.484 19.0329 26.484 18.9658C26.484 18.8762 26.5288 18.7867 26.6183 18.6972L30.5801 14.4332C30.6697 14.2989 30.6473 14.2317 30.513 14.2317H24.7381C24.6262 14.2317 24.5255 14.1982 24.436 14.131C24.3688 14.0415 24.3352 13.9408 24.3352 13.8288V9.90061C24.3352 9.7887 24.3688 9.69916 24.436 9.63201C24.5255 9.54248 24.6262 9.49771 24.7381 9.49771H36.9929C37.1048 9.49771 37.1943 9.54248 37.2615 9.63201C37.351 9.69916 37.3958 9.7887 37.3958 9.90061V13.9631C37.3958 14.1422 37.3286 14.2989 37.1943 14.4332L33.5683 18.63C33.4787 18.7643 33.5011 18.8315 33.6354 18.8315C34.6427 18.8986 35.4932 19.3687 36.1871 20.2416C36.881 21.1146 37.2615 22.1666 37.3286 23.3976Z" fill="black"/>
<rect x="39.2511" y="30.6196" width="36.3163" height="3.56042" fill="#F27900"/>
</svg>
