<svg width="32" height="32" viewBox="0 0 32 32" fill="none" xmlns="http://www.w3.org/2000/svg">
<path d="M16.0003 2.66667C23.3643 2.66667 29.3337 8.636 29.3337 16C29.3337 23.364 23.3643 29.3333 16.0003 29.3333C8.63633 29.3333 2.66699 23.364 2.66699 16C2.66699 8.636 8.63633 2.66667 16.0003 2.66667ZM22.1283 9.872C21.9964 9.73971 21.822 9.65822 21.6359 9.64188C21.4498 9.62553 21.2639 9.67539 21.111 9.78267C17.2577 12.4867 15.0843 14.0893 14.5857 14.5853C14.211 14.9608 14.0005 15.4696 14.0005 16C14.0005 16.5304 14.211 17.0392 14.5857 17.4147C14.9611 17.7894 15.4699 17.9998 16.0003 17.9998C16.5308 17.9998 17.0395 17.7894 17.415 17.4147C17.707 17.1213 19.3057 14.9467 22.2123 10.8853C22.3205 10.7338 22.3714 10.5488 22.356 10.3633C22.3407 10.1777 22.26 10.0037 22.1283 9.872ZM23.3337 14.6667C22.98 14.6667 22.6409 14.8071 22.3908 15.0572C22.1408 15.3072 22.0003 15.6464 22.0003 16C22.0003 16.3536 22.1408 16.6928 22.3908 16.9428C22.6409 17.1929 22.98 17.3333 23.3337 17.3333C23.6873 17.3333 24.0264 17.1929 24.2765 16.9428C24.5265 16.6928 24.667 16.3536 24.667 16C24.667 15.6464 24.5265 15.3072 24.2765 15.0572C24.0264 14.8071 23.6873 14.6667 23.3337 14.6667ZM8.66699 14.6667C8.31337 14.6667 7.97423 14.8071 7.72418 15.0572C7.47413 15.3072 7.33366 15.6464 7.33366 16C7.33366 16.3536 7.47413 16.6928 7.72418 16.9428C7.97423 17.1929 8.31337 17.3333 8.66699 17.3333C9.02061 17.3333 9.35975 17.1929 9.6098 16.9428C9.85985 16.6928 10.0003 16.3536 10.0003 16C10.0003 15.6464 9.85985 15.3072 9.6098 15.0572C9.35975 14.8071 9.02061 14.6667 8.66699 14.6667ZM11.7577 9.872C11.6337 9.74821 11.4866 9.65005 11.3246 9.58312C11.1627 9.51619 10.9892 9.48181 10.814 9.48193C10.6389 9.48205 10.4654 9.51668 10.3036 9.58384C10.1418 9.651 9.99478 9.74937 9.87099 9.87334C9.62098 10.1237 9.48067 10.4631 9.48092 10.8169C9.48104 10.9921 9.51567 11.1656 9.58283 11.3274C9.64999 11.4892 9.74836 11.6362 9.87232 11.76C10.1227 12.01 10.4621 12.1503 10.8159 12.1501C11.1698 12.1498 11.509 12.009 11.759 11.7587C12.009 11.5083 12.1493 11.1689 12.1491 10.8151C12.1488 10.4612 12.008 10.122 11.7577 9.872ZM16.0003 7.33334C15.6467 7.33334 15.3076 7.47381 15.0575 7.72386C14.8075 7.97391 14.667 8.31305 14.667 8.66667C14.667 9.02029 14.8075 9.35943 15.0575 9.60948C15.3076 9.85953 15.6467 10 16.0003 10C16.3539 10 16.6931 9.85953 16.9431 9.60948C17.1932 9.35943 17.3337 9.02029 17.3337 8.66667C17.3337 8.31305 17.1932 7.97391 16.9431 7.72386C16.6931 7.47381 16.3539 7.33334 16.0003 7.33334Z" fill="black"/>
</svg>
