<svg width="23" height="23" viewBox="0 0 23 23" fill="none" xmlns="http://www.w3.org/2000/svg">
<path d="M0 4.1239C0 3.03017 0.434481 1.98124 1.20786 1.20786C1.98124 0.434481 3.03017 0 4.1239 0H18.7161C19.8099 0 20.8588 0.434481 21.6322 1.20786C22.4056 1.98124 22.84 3.03017 22.84 4.1239V18.7161C22.84 19.8099 22.4056 20.8588 21.6322 21.6322C20.8588 22.4056 19.8099 22.84 18.7161 22.84H4.1239C3.03017 22.84 1.98124 22.4056 1.20786 21.6322C0.434481 20.8588 0 19.8099 0 18.7161V4.1239ZM4.75834 4.75834C4.50594 4.75834 4.26388 4.85861 4.08541 5.03708C3.90694 5.21555 3.80667 5.45761 3.80667 5.71001C3.80667 5.96241 3.90694 6.20447 4.08541 6.38294C4.26388 6.56141 4.50594 6.66168 4.75834 6.66168H18.0817C18.3341 6.66168 18.5762 6.56141 18.7546 6.38294C18.9331 6.20447 19.0334 5.96241 19.0334 5.71001C19.0334 5.45761 18.9331 5.21555 18.7546 5.03708C18.5762 4.85861 18.3341 4.75834 18.0817 4.75834H4.75834Z" fill="black"/>
</svg>
